<svg width="64" height="64" viewBox="0 0 64 64" fill="none" xmlns="http://www.w3.org/2000/svg">
<g clip-path="url(#clip0_1_30)">
<path fill-rule="evenodd" clip-rule="evenodd" d="M31.904 0C23.4429 0.00106063 15.3286 3.36271 9.34564 9.34564C3.36271 15.3286 0.00106063 23.4429 0 31.904C0 45.992 9.2 57.932 21.724 62.24C23.292 62.436 23.876 61.456 23.876 60.672V55.192C15.072 57.152 13.116 50.888 13.116 50.888C11.744 47.168 9.592 46.188 9.592 46.188C6.656 44.232 9.784 44.232 9.784 44.232C12.916 44.428 14.68 47.56 14.68 47.56C17.616 52.452 22.116 51.08 23.88 50.3C24.072 48.148 25.052 46.78 25.836 45.996C18.788 45.212 11.352 42.472 11.352 30.14C11.352 26.62 12.524 23.876 14.68 21.528C14.48 20.94 13.308 17.616 15.072 13.308C15.072 13.308 17.812 12.524 23.876 16.636C26.42 15.852 29.164 15.656 31.904 15.656C34.644 15.656 37.384 16.048 39.928 16.636C45.996 12.528 48.736 13.308 48.736 13.308C50.496 17.616 49.32 20.94 49.124 21.724C51.2796 24.0723 52.4683 27.1484 52.452 30.336C52.452 42.668 45.012 45.212 37.972 45.996C39.144 46.972 40.124 48.928 40.124 51.864V60.672C40.124 61.456 40.708 62.432 42.276 62.24C48.6214 60.1011 54.1334 56.0209 58.0321 50.5767C61.9307 45.1325 64.0185 38.6001 64 31.904C63.804 14.288 49.52 0 31.904 0Z" fill="white"/>
</g>
<defs>
<clipPath id="clip0_1_30">
<rect width="64" height="64" fill="white"/>
</clipPath>
</defs>
</svg>
