<svg width="72" height="72" viewBox="0 0 72 72" fill="none" xmlns="http://www.w3.org/2000/svg">
<path d="M27.525 32.475C25.175 30.125 24 27.3 24 24C24 20.7 25.175 17.875 27.525 15.525C29.875 13.175 32.7 12 36 12C39.3 12 42.125 13.175 44.475 15.525C46.825 17.875 48 20.7 48 24C48 27.3 46.825 30.125 44.475 32.475C42.125 34.825 39.3 36 36 36C32.7 36 29.875 34.825 27.525 32.475ZM12 60V51.6C12 49.9 12.438 48.338 13.314 46.914C14.19 45.49 15.352 44.402 16.8 43.65C19.9 42.1 23.05 40.938 26.25 40.164C29.45 39.39 32.7 39.002 36 39C39.3 38.998 42.55 39.386 45.75 40.164C48.95 40.942 52.1 42.104 55.2 43.65C56.65 44.4 57.813 45.488 58.689 46.914C59.565 48.34 60.002 49.902 60 51.6V60H12Z" fill="white"/>
</svg>
